<svg xmlns="http://www.w3.org/2000/svg" width="400" height="400" viewBox="0 0 400 400">
  <!-- Main circle background -->
  <circle cx="200" cy="200" r="180" fill="#F5F5DC" stroke="#666" stroke-width="2"/>
  
  <!-- Background dots pattern -->
  <g>
    <!-- Light green background dots -->
    <circle cx="75" cy="85" r="6" fill="#90EE90" opacity="0.8"/>
    <circle cx="95" cy="100" r="7" fill="#98FB98" opacity="0.9"/>
    <circle cx="120" cy="80" r="5" fill="#ADFF2F" opacity="0.7"/>
    <circle cx="145" cy="90" r="8" fill="#90EE90" opacity="0.8"/>
    <circle cx="170" cy="75" r="6" fill="#98FB98" opacity="0.9"/>
    <circle cx="250" cy="90" r="8" fill="#98FB98" opacity="0.9"/>
    <circle cx="275" cy="75" r="6" fill="#ADFF2F" opacity="0.7"/>
    <circle cx="300" cy="95" r="7" fill="#90EE90" opacity="0.8"/>
    <circle cx="325" cy="85" r="6" fill="#98FB98" opacity="0.9"/>
    
    <!-- Continue background pattern around circle -->
    <circle cx="65" cy="125" r="7" fill="#ADFF2F" opacity="0.7"/>
    <circle cx="85" cy="140" r="6" fill="#90EE90" opacity="0.8"/>
    <circle cx="105" cy="130" r="8" fill="#98FB98" opacity="0.9"/>
    <circle cx="295" cy="145" r="5" fill="#90EE90" opacity="0.8"/>
    <circle cx="315" cy="135" r="7" fill="#98FB98" opacity="0.9"/>
    <circle cx="335" cy="140" r="6" fill="#ADFF2F" opacity="0.7"/>
    
    <!-- More background dots -->
    <circle cx="55" cy="165" r="6" fill="#90EE90" opacity="0.8"/>
    <circle cx="75" cy="180" r="7" fill="#98FB98" opacity="0.9"/>
    <circle cx="95" cy="170" r="5" fill="#ADFF2F" opacity="0.7"/>
    <circle cx="305" cy="185" r="8" fill="#98FB98" opacity="0.9"/>
    <circle cx="325" cy="180" r="6" fill="#ADFF2F" opacity="0.7"/>
    <circle cx="345" cy="165" r="7" fill="#90EE90" opacity="0.8"/>
    
    <!-- Middle section -->
    <circle cx="45" cy="205" r="7" fill="#98FB98" opacity="0.9"/>
    <circle cx="65" cy="195" r="6" fill="#ADFF2F" opacity="0.7"/>
    <circle cx="85" cy="215" r="8" fill="#90EE90" opacity="0.8"/>
    <circle cx="315" cy="215" r="5" fill="#ADFF2F" opacity="0.7"/>
    <circle cx="335" cy="195" r="7" fill="#90EE90" opacity="0.8"/>
    <circle cx="355" cy="205" r="6" fill="#98FB98" opacity="0.9"/>
    
    <!-- Lower section -->
    <circle cx="55" cy="245" r="6" fill="#ADFF2F" opacity="0.7"/>
    <circle cx="75" cy="260" r="7" fill="#90EE90" opacity="0.8"/>
    <circle cx="95" cy="250" r="5" fill="#98FB98" opacity="0.9"/>
    <circle cx="305" cy="265" r="8" fill="#90EE90" opacity="0.8"/>
    <circle cx="325" cy="260" r="6" fill="#98FB98" opacity="0.9"/>
    <circle cx="345" cy="245" r="7" fill="#ADFF2F" opacity="0.7"/>
    
    <!-- Bottom section -->
    <circle cx="75" cy="300" r="7" fill="#90EE90" opacity="0.8"/>
    <circle cx="95" cy="290" r="6" fill="#98FB98" opacity="0.9"/>
    <circle cx="120" cy="305" r="8" fill="#ADFF2F" opacity="0.7"/>
    <circle cx="280" cy="305" r="8" fill="#98FB98" opacity="0.9"/>
    <circle cx="305" cy="290" r="6" fill="#90EE90" opacity="0.8"/>
    <circle cx="325" cy="300" r="8" fill="#98FB98" opacity="0.9"/>
  </g>
  
  <!-- Number 5 in contrasting red dots -->
  <g>
    <!-- Top horizontal line -->
    <circle cx="180" cy="150" r="7" fill="#DC143C" opacity="1"/>
    <circle cx="190" cy="145" r="6" fill="#B22222" opacity="1"/>
    <circle cx="200" cy="150" r="8" fill="#DC143C" opacity="1"/>
    <circle cx="210" cy="145" r="7" fill="#B22222" opacity="1"/>
    <circle cx="220" cy="150" r="6" fill="#DC143C" opacity="1"/>
    
    <!-- Left vertical line (top) -->
    <circle cx="175" cy="160" r="8" fill="#B22222" opacity="1"/>
    <circle cx="170" cy="170" r="7" fill="#DC143C" opacity="1"/>
    <circle cx="175" cy="180" r="6" fill="#B22222" opacity="1"/>
    <circle cx="170" cy="190" r="8" fill="#DC143C" opacity="1"/>
    
    <!-- Middle horizontal line -->
    <circle cx="180" cy="195" r="7" fill="#B22222" opacity="1"/>
    <circle cx="190" cy="200" r="6" fill="#DC143C" opacity="1"/>
    <circle cx="200" cy="195" r="8" fill="#B22222" opacity="1"/>
    <circle cx="210" cy="200" r="7" fill="#DC143C" opacity="1"/>
    <circle cx="220" cy="195" r="6" fill="#B22222" opacity="1"/>
    
    <!-- Right vertical line (bottom) -->
    <circle cx="225" cy="205" r="8" fill="#DC143C" opacity="1"/>
    <circle cx="230" cy="215" r="7" fill="#B22222" opacity="1"/>
    <circle cx="225" cy="225" r="6" fill="#DC143C" opacity="1"/>
    <circle cx="230" cy="235" r="8" fill="#B22222" opacity="1"/>
    
    <!-- Bottom horizontal line -->
    <circle cx="180" cy="240" r="7" fill="#DC143C" opacity="1"/>
    <circle cx="190" cy="245" r="6" fill="#B22222" opacity="1"/>
    <circle cx="200" cy="240" r="8" fill="#DC143C" opacity="1"/>
    <circle cx="210" cy="245" r="7" fill="#B22222" opacity="1"/>
    <circle cx="220" cy="240" r="6" fill="#DC143C" opacity="1"/>
    
    <!-- Left bottom corner -->
    <circle cx="175" cy="250" r="8" fill="#B22222" opacity="1"/>
  </g>
</svg>