<svg xmlns="http://www.w3.org/2000/svg" width="400" height="400" viewBox="0 0 400 400">
  <!-- Main circle background -->
  <circle cx="200" cy="200" r="180" fill="#F5F5DC" stroke="#666" stroke-width="2"/>
  
  <!-- Background dots pattern -->
  <g>
    <!-- Purple/violet background dots -->
    <circle cx="75" cy="85" r="6" fill="#8B4789" opacity="0.8"/>
    <circle cx="95" cy="100" r="7" fill="#9370DB" opacity="0.9"/>
    <circle cx="120" cy="80" r="5" fill="#8A2BE2" opacity="0.7"/>
    <circle cx="145" cy="90" r="8" fill="#9932CC" opacity="0.8"/>
    <circle cx="170" cy="75" r="6" fill="#8B4789" opacity="0.9"/>
    <circle cx="195" cy="85" r="7" fill="#9370DB" opacity="0.7"/>
    <circle cx="250" cy="90" r="5" fill="#8A2BE2" opacity="0.8"/>
    <circle cx="275" cy="80" r="8" fill="#9932CC" opacity="0.9"/>
    <circle cx="300" cy="95" r="6" fill="#8B4789" opacity="0.7"/>
    <circle cx="325" cy="85" r="7" fill="#9370DB" opacity="0.8"/>
    
    <!-- More background dots -->
    <circle cx="65" cy="125" r="7" fill="#8A2BE2" opacity="0.7"/>
    <circle cx="85" cy="140" r="6" fill="#9932CC" opacity="0.8"/>
    <circle cx="105" cy="130" r="8" fill="#8B4789" opacity="0.9"/>
    <circle cx="125" cy="145" r="5" fill="#9370DB" opacity="0.7"/>
    <circle cx="150" cy="135" r="7" fill="#8A2BE2" opacity="0.8"/>
    <circle cx="265" cy="135" r="6" fill="#9932CC" opacity="0.9"/>
    <circle cx="290" cy="130" r="8" fill="#8B4789" opacity="0.7"/>
    <circle cx="310" cy="145" r="5" fill="#9370DB" opacity="0.8"/>
    <circle cx="330" cy="135" r="7" fill="#8A2BE2" opacity="0.9"/>
    <circle cx="350" cy="140" r="6" fill="#9932CC" opacity="0.7"/>
    
    <!-- Continue pattern around circle -->
    <circle cx="55" cy="165" r="6" fill="#8B4789" opacity="0.8"/>
    <circle cx="75" cy="180" r="7" fill="#9370DB" opacity="0.9"/>
    <circle cx="95" cy="170" r="5" fill="#8A2BE2" opacity="0.7"/>
    <circle cx="115" cy="185" r="8" fill="#9932CC" opacity="0.8"/>
    <circle cx="135" cy="175" r="6" fill="#8B4789" opacity="0.9"/>
    <circle cx="285" cy="175" r="7" fill="#9370DB" opacity="0.7"/>
    <circle cx="305" cy="170" r="5" fill="#8A2BE2" opacity="0.8"/>
    <circle cx="325" cy="185" r="8" fill="#9932CC" opacity="0.9"/>
    <circle cx="345" cy="180" r="6" fill="#8B4789" opacity="0.7"/>
    <circle cx="365" cy="165" r="7" fill="#9370DB" opacity="0.8"/>
    
    <!-- Middle row dots -->
    <circle cx="45" cy="205" r="7" fill="#8A2BE2" opacity="0.7"/>
    <circle cx="65" cy="195" r="6" fill="#9932CC" opacity="0.8"/>
    <circle cx="85" cy="215" r="8" fill="#8B4789" opacity="0.9"/>
    <circle cx="105" cy="200" r="5" fill="#9370DB" opacity="0.7"/>
    <circle cx="125" cy="210" r="7" fill="#8A2BE2" opacity="0.8"/>
    <circle cx="295" cy="200" r="6" fill="#9932CC" opacity="0.9"/>
    <circle cx="315" cy="215" r="8" fill="#8B4789" opacity="0.7"/>
    <circle cx="335" cy="195" r="5" fill="#9370DB" opacity="0.8"/>
    <circle cx="355" cy="210" r="7" fill="#8A2BE2" opacity="0.9"/>
    <circle cx="375" cy="205" r="6" fill="#9932CC" opacity="0.7"/>
    
    <!-- Lower section dots -->
    <circle cx="55" cy="245" r="6" fill="#8B4789" opacity="0.8"/>
    <circle cx="75" cy="260" r="7" fill="#9370DB" opacity="0.9"/>
    <circle cx="95" cy="250" r="5" fill="#8A2BE2" opacity="0.7"/>
    <circle cx="115" cy="265" r="8" fill="#9932CC" opacity="0.8"/>
    <circle cx="135" cy="255" r="6" fill="#8B4789" opacity="0.9"/>
    <circle cx="285" cy="255" r="7" fill="#9370DB" opacity="0.7"/>
    <circle cx="305" cy="250" r="5" fill="#8A2BE2" opacity="0.8"/>
    <circle cx="325" cy="265" r="8" fill="#9932CC" opacity="0.9"/>
    <circle cx="345" cy="260" r="6" fill="#8B4789" opacity="0.7"/>
    <circle cx="365" cy="245" r="7" fill="#9370DB" opacity="0.8"/>
    
    <!-- Bottom section -->
    <circle cx="75" cy="300" r="7" fill="#8A2BE2" opacity="0.7"/>
    <circle cx="95" cy="290" r="6" fill="#9932CC" opacity="0.8"/>
    <circle cx="120" cy="305" r="8" fill="#8B4789" opacity="0.9"/>
    <circle cx="145" cy="295" r="5" fill="#9370DB" opacity="0.7"/>
    <circle cx="170" cy="310" r="7" fill="#8A2BE2" opacity="0.8"/>
    <circle cx="195" cy="300" r="6" fill="#9932CC" opacity="0.9"/>
    <circle cx="245" cy="310" r="8" fill="#8B4789" opacity="0.7"/>
    <circle cx="270" cy="295" r="5" fill="#9370DB" opacity="0.8"/>
    <circle cx="295" cy="305" r="7" fill="#8A2BE2" opacity="0.9"/>
    <circle cx="320" cy="290" r="6" fill="#9932CC" opacity="0.7"/>
    <circle cx="345" cy="300" r="8" fill="#8B4789" opacity="0.8"/>
  </g>
  
  <!-- Number 29 in contrasting red dots -->
  <g>
    <!-- Digit 2 (left) -->
    <!-- Top horizontal line -->
    <circle cx="150" cy="150" r="7" fill="#DC143C" opacity="1"/>
    <circle cx="160" cy="145" r="6" fill="#B22222" opacity="1"/>
    <circle cx="170" cy="150" r="8" fill="#DC143C" opacity="1"/>
    <circle cx="180" cy="155" r="7" fill="#B22222" opacity="1"/>
    
    <!-- Right vertical line (top) -->
    <circle cx="185" cy="165" r="6" fill="#DC143C" opacity="1"/>
    <circle cx="190" cy="175" r="8" fill="#B22222" opacity="1"/>
    <circle cx="185" cy="185" r="7" fill="#DC143C" opacity="1"/>
    
    <!-- Middle horizontal line -->
    <circle cx="180" cy="195" r="6" fill="#B22222" opacity="1"/>
    <circle cx="170" cy="200" r="8" fill="#DC143C" opacity="1"/>
    <circle cx="160" cy="195" r="7" fill="#B22222" opacity="1"/>
    <circle cx="150" cy="200" r="6" fill="#DC143C" opacity="1"/>
    
    <!-- Left vertical line (bottom) -->
    <circle cx="145" cy="210" r="8" fill="#B22222" opacity="1"/>
    <circle cx="150" cy="220" r="7" fill="#DC143C" opacity="1"/>
    <circle cx="145" cy="230" r="6" fill="#B22222" opacity="1"/>
    
    <!-- Bottom horizontal line -->
    <circle cx="150" cy="240" r="8" fill="#DC143C" opacity="1"/>
    <circle cx="160" cy="245" r="7" fill="#B22222" opacity="1"/>
    <circle cx="170" cy="240" r="6" fill="#DC143C" opacity="1"/>
    <circle cx="180" cy="245" r="8" fill="#B22222" opacity="1"/>
    <circle cx="190" cy="240" r="7" fill="#DC143C" opacity="1"/>
    
    <!-- Digit 9 (right) -->
    <!-- Top horizontal line -->
    <circle cx="230" cy="150" r="7" fill="#DC143C" opacity="1"/>
    <circle cx="240" cy="145" r="6" fill="#B22222" opacity="1"/>
    <circle cx="250" cy="150" r="8" fill="#DC143C" opacity="1"/>
    <circle cx="260" cy="155" r="7" fill="#B22222" opacity="1"/>
    
    <!-- Left vertical line (top) -->
    <circle cx="225" cy="165" r="6" fill="#DC143C" opacity="1"/>
    <circle cx="220" cy="175" r="8" fill="#B22222" opacity="1"/>
    <circle cx="225" cy="185" r="7" fill="#DC143C" opacity="1"/>
    
    <!-- Right vertical line (full) -->
    <circle cx="265" cy="165" r="8" fill="#B22222" opacity="1"/>
    <circle cx="270" cy="175" r="7" fill="#DC143C" opacity="1"/>
    <circle cx="265" cy="185" r="6" fill="#B22222" opacity="1"/>
    <circle cx="270" cy="195" r="8" fill="#DC143C" opacity="1"/>
    <circle cx="265" cy="205" r="7" fill="#B22222" opacity="1"/>
    <circle cx="270" cy="215" r="6" fill="#DC143C" opacity="1"/>
    <circle cx="265" cy="225" r="8" fill="#B22222" opacity="1"/>
    <circle cx="270" cy="235" r="7" fill="#DC143C" opacity="1"/>
    
    <!-- Middle horizontal line -->
    <circle cx="230" cy="195" r="6" fill="#B22222" opacity="1"/>
    <circle cx="240" cy="200" r="8" fill="#DC143C" opacity="1"/>
    <circle cx="250" cy="195" r="7" fill="#B22222" opacity="1"/>
    <circle cx="260" cy="200" r="6" fill="#DC143C" opacity="1"/>
    
    <!-- Bottom curve -->
    <circle cx="260" cy="240" r="8" fill="#B22222" opacity="1"/>
    <circle cx="250" cy="245" r="7" fill="#DC143C" opacity="1"/>
    <circle cx="240" cy="240" r="6" fill="#B22222" opacity="1"/>
  </g>
</svg>