<svg xmlns="http://www.w3.org/2000/svg" width="400" height="400" viewBox="0 0 400 400">
  <!-- Main circle background -->
  <circle cx="200" cy="200" r="180" fill="#F5F5DC" stroke="#666" stroke-width="2"/>
  
  <!-- Background dots pattern -->
  <g>
    <!-- Blue/purple background dots -->
    <circle cx="70" cy="80" r="6" fill="#6A5ACD" opacity="0.8"/>
    <circle cx="90" cy="95" r="7" fill="#7B68EE" opacity="0.9"/>
    <circle cx="115" cy="75" r="5" fill="#9370DB" opacity="0.7"/>
    <circle cx="140" cy="85" r="8" fill="#6A5ACD" opacity="0.8"/>
    <circle cx="165" cy="70" r="6" fill="#7B68EE" opacity="0.9"/>
    <circle cx="190" cy="80" r="7" fill="#9370DB" opacity="0.7"/>
    <circle cx="240" cy="85" r="5" fill="#6A5ACD" opacity="0.8"/>
    <circle cx="265" cy="75" r="8" fill="#7B68EE" opacity="0.9"/>
    <circle cx="290" cy="90" r="6" fill="#9370DB" opacity="0.7"/>
    <circle cx="315" cy="80" r="7" fill="#6A5ACD" opacity="0.8"/>
    <circle cx="330" cy="95" r="5" fill="#7B68EE" opacity="0.9"/>
    
    <!-- Continue background pattern -->
    <circle cx="60" cy="120" r="7" fill="#9370DB" opacity="0.7"/>
    <circle cx="80" cy="135" r="6" fill="#6A5ACD" opacity="0.8"/>
    <circle cx="100" cy="125" r="8" fill="#7B68EE" opacity="0.9"/>
    <circle cx="120" cy="140" r="5" fill="#9370DB" opacity="0.7"/>
    <circle cx="145" cy="130" r="7" fill="#6A5ACD" opacity="0.8"/>
    <circle cx="255" cy="130" r="6" fill="#7B68EE" opacity="0.9"/>
    <circle cx="280" cy="125" r="8" fill="#9370DB" opacity="0.7"/>
    <circle cx="300" cy="140" r="5" fill="#6A5ACD" opacity="0.8"/>
    <circle cx="320" cy="135" r="7" fill="#7B68EE" opacity="0.9"/>
    <circle cx="340" cy="135" r="6" fill="#9370DB" opacity="0.7"/>
    
    <!-- More background dots -->
    <circle cx="50" cy="160" r="6" fill="#6A5ACD" opacity="0.8"/>
    <circle cx="70" cy="175" r="7" fill="#7B68EE" opacity="0.9"/>
    <circle cx="90" cy="165" r="5" fill="#9370DB" opacity="0.7"/>
    <circle cx="110" cy="180" r="8" fill="#6A5ACD" opacity="0.8"/>
    <circle cx="130" cy="170" r="6" fill="#7B68EE" opacity="0.9"/>
    <circle cx="270" cy="170" r="7" fill="#9370DB" opacity="0.7"/>
    <circle cx="290" cy="165" r="5" fill="#6A5ACD" opacity="0.8"/>
    <circle cx="310" cy="180" r="8" fill="#7B68EE" opacity="0.9"/>
    <circle cx="330" cy="175" r="6" fill="#9370DB" opacity="0.7"/>
    <circle cx="350" cy="160" r="7" fill="#6A5ACD" opacity="0.8"/>
    
    <!-- Middle section -->
    <circle cx="40" cy="200" r="7" fill="#9370DB" opacity="0.7"/>
    <circle cx="60" cy="190" r="6" fill="#6A5ACD" opacity="0.8"/>
    <circle cx="80" cy="210" r="8" fill="#7B68EE" opacity="0.9"/>
    <circle cx="100" cy="195" r="5" fill="#9370DB" opacity="0.7"/>
    <circle cx="120" cy="205" r="7" fill="#6A5ACD" opacity="0.8"/>
    <circle cx="280" cy="195" r="6" fill="#7B68EE" opacity="0.9"/>
    <circle cx="300" cy="210" r="8" fill="#9370DB" opacity="0.7"/>
    <circle cx="320" cy="190" r="5" fill="#6A5ACD" opacity="0.8"/>
    <circle cx="340" cy="205" r="7" fill="#7B68EE" opacity="0.9"/>
    <circle cx="360" cy="200" r="6" fill="#9370DB" opacity="0.7"/>
    
    <!-- Lower section -->
    <circle cx="50" cy="240" r="6" fill="#6A5ACD" opacity="0.8"/>
    <circle cx="70" cy="255" r="7" fill="#7B68EE" opacity="0.9"/>
    <circle cx="90" cy="245" r="5" fill="#9370DB" opacity="0.7"/>
    <circle cx="110" cy="260" r="8" fill="#6A5ACD" opacity="0.8"/>
    <circle cx="130" cy="250" r="6" fill="#7B68EE" opacity="0.9"/>
    <circle cx="270" cy="250" r="7" fill="#9370DB" opacity="0.7"/>
    <circle cx="290" cy="245" r="5" fill="#6A5ACD" opacity="0.8"/>
    <circle cx="310" cy="260" r="8" fill="#7B68EE" opacity="0.9"/>
    <circle cx="330" cy="255" r="6" fill="#9370DB" opacity="0.7"/>
    <circle cx="350" cy="240" r="7" fill="#6A5ACD" opacity="0.8"/>
    
    <!-- Bottom section -->
    <circle cx="70" cy="295" r="7" fill="#9370DB" opacity="0.7"/>
    <circle cx="90" cy="285" r="6" fill="#6A5ACD" opacity="0.8"/>
    <circle cx="115" cy="300" r="8" fill="#7B68EE" opacity="0.9"/>
    <circle cx="140" cy="290" r="5" fill="#9370DB" opacity="0.7"/>
    <circle cx="165" cy="305" r="7" fill="#6A5ACD" opacity="0.8"/>
    <circle cx="235" cy="305" r="8" fill="#7B68EE" opacity="0.9"/>
    <circle cx="260" cy="290" r="5" fill="#9370DB" opacity="0.7"/>
    <circle cx="285" cy="300" r="7" fill="#6A5ACD" opacity="0.8"/>
    <circle cx="310" cy="285" r="6" fill="#7B68EE" opacity="0.9"/>
    <circle cx="330" cy="295" r="8" fill="#9370DB" opacity="0.7"/>
  </g>
  
  <!-- Number 3 in contrasting orange dots -->
  <g>
    <!-- Top horizontal line -->
    <circle cx="180" cy="150" r="7" fill="#FFA500" opacity="1"/>
    <circle cx="190" cy="145" r="6" fill="#FF8C00" opacity="1"/>
    <circle cx="200" cy="150" r="8" fill="#FFA500" opacity="1"/>
    <circle cx="210" cy="145" r="7" fill="#FF8C00" opacity="1"/>
    <circle cx="220" cy="150" r="6" fill="#FFA500" opacity="1"/>
    
    <!-- Right vertical line (top) -->
    <circle cx="225" cy="160" r="8" fill="#FF8C00" opacity="1"/>
    <circle cx="230" cy="170" r="7" fill="#FFA500" opacity="1"/>
    <circle cx="225" cy="180" r="6" fill="#FF8C00" opacity="1"/>
    
    <!-- Middle horizontal line -->
    <circle cx="190" cy="195" r="7" fill="#FFA500" opacity="1"/>
    <circle cx="200" cy="200" r="6" fill="#FF8C00" opacity="1"/>
    <circle cx="210" cy="195" r="8" fill="#FFA500" opacity="1"/>
    <circle cx="220" cy="200" r="7" fill="#FF8C00" opacity="1"/>
    
    <!-- Right vertical line (bottom) -->
    <circle cx="225" cy="210" r="6" fill="#FFA500" opacity="1"/>
    <circle cx="230" cy="220" r="8" fill="#FF8C00" opacity="1"/>
    <circle cx="225" cy="230" r="7" fill="#FFA500" opacity="1"/>
    
    <!-- Bottom horizontal line -->
    <circle cx="180" cy="240" r="6" fill="#FF8C00" opacity="1"/>
    <circle cx="190" cy="245" r="8" fill="#FFA500" opacity="1"/>
    <circle cx="200" cy="240" r="7" fill="#FF8C00" opacity="1"/>
    <circle cx="210" cy="245" r="6" fill="#FFA500" opacity="1"/>
    <circle cx="220" cy="240" r="8" fill="#FF8C00" opacity="1"/>
  </g>
</svg>